<svg height="51" viewBox="0 0 60 51" width="60" xmlns="http://www.w3.org/2000/svg"><g fill="none" fill-rule="evenodd"><g fill="#9b9b9b"><path d="m39 51c-.2558909 0-.5122397-.0979617-.7072479-.2929695l-5.7069646-5.7069542h-13.5860273c-.5520653 0-.9997602-.4467785-.9997602-1.0002162v-27.999644c0-.5534376.4476949-1.0002161.9997602-1.0002161h40.0000218c.5520654 0 1.000218.4467785 1.000218 1.0002161v27.999644c0 .5534377-.4481526 1.0002162-1.000218 1.0002162h-13.5860272l-5.7069646 5.7069542c-.1950081.1950078-.4508992.2929695-.7067902.2929695zm-19.0000217-7.9998983h13.0000871c.2650463 0 .5200218.1048282.7067902.2929695l5.2931444 5.2931347 5.2931444-5.2931347c.1867684-.1881413.4417439-.2929695.7067902-.2929695h13.0000872v-26.0001272h-38.0000435z" fill-rule="nonzero"/><path d="m19.0000217 32h-17.99980375c-.55206533 0-1.00021795-.4467778-1.00021795-.9997568v-30.00002865c0-.55343678.44815262-1.00021455 1.00021795-1.00021455h40.00002185c.5520653 0 .9997602.44677777.9997602 1.00021455v15.00001435c0 .552979-.4476949.9997568-.9997602.9997568h-21v14.0002575c0 .552979-.4481526.9997568-1.0002181.9997568zm-17.00004353-1.9999714h16.00028333v-13.9997997c0-.5534368.4476949-1.0002146.9997602-1.0002146h21v-13.00004294h-38.00004353z" fill-rule="nonzero"/><path d="m13.9997711 17h-7.99999998c-.55207147 0-.99977112-.4467842-.99977112-.9997711 0-.5534447.44769965-1.0002289.99977112-1.0002289h7.99999998c.5520714 0 1.0002289.4467842 1.0002289 1.0002289 0 .5529869-.4481575.9997711-1.0002289.9997711z"/><path d="m13.9997711 22h-7.99999998c-.55207147 0-.99977112-.4472419-.99977112-1.0002289 0-.5529869.44769965-.9997711.99977112-.9997711h7.99999998c.5520714 0 1.0002289.4467842 1.0002289.9997711 0 .552987-.4481575 1.0002289-1.0002289 1.0002289z"/><path d="m13.9997711 27h-7.99999998c-.55207147 0-.99977112-.4467841-.99977112-.9997711 0-.5529869.44769965-1.0002289.99977112-1.0002289h7.99999998c.5520714 0 1.0002289.447242 1.0002289 1.0002289 0 .552987-.4481575.9997711-1.0002289.9997711z"/></g><path d="m35.9997855 12h-30.00002869c-.55206357 0-.99975681-.4467842-.99975681-.9997711v-5.99999994c0-.55298695.44769324-1.00022896.99975681-1.00022896h30.00002869c.5520634 0 1.0002145.44724201 1.0002145 1.00022896v5.99999994c0 .5529869-.4481511.9997711-1.0002145.9997711z" fill="#5fb50c" fill-rule="nonzero"/><path d="m39.0002288 43c-6.6169485 0-12.0002288-5.3828225-12.0002288-11.9997711 0-6.6174064 5.3832803-12.0002289 12.0002288-12.0002289 6.6169487 0 11.9997712 5.3828225 11.9997712 12.0002289 0 6.6169486-5.3828225 11.9997711-11.9997712 11.9997711z" fill="#5fb50c" fill-rule="nonzero"/><path d="m38.9999999 31c-2.2059968 0-3.9999999-1.7943583-3.9999999-4.0002288 0-2.2058706 1.7940031-3.9997712 3.9999999-3.9997712 2.2059969 0 4.0000001 1.7939006 4.0000001 3.9997712 0 2.2058705-1.7940032 4.0002288-4.0000001 4.0002288zm0-6.0001145c-1.1032272 0-1.9999999.8971792-1.9999999 1.9998857 0 1.1031641.8967727 1.9998855 1.9999999 1.9998855 1.1027696 0 2.0000001-.8967214 2.0000001-1.9998855 0-1.1027065-.8972305-1.9998857-2.0000001-1.9998857z" fill="#fff" fill-rule="nonzero"/><path d="m36.0000001 37c-2.2059969 0-4.0000001-1.7939006-4.0000001-3.9997712 0-2.2058705 1.7940032-4.0002288 4.0000001-4.0002288 2.2059968 0 3.9999999 1.7943583 3.9999999 4.0002288 0 2.2058706-1.7940031 3.9997712-3.9999999 3.9997712zm0-5.9996567c-1.1027696 0-2.0000001.8967214-2.0000001 1.9998855 0 1.1027065.8972305 1.9998857 2.0000001 1.9998857 1.1032272 0 1.9999999-.8971792 1.9999999-1.9998857 0-1.1031641-.8967727-1.9998855-1.9999999-1.9998855z" fill="#fff" fill-rule="nonzero"/><path d="m41.9997712 37c-2.2058706 0-3.9997712-1.7939006-3.9997712-3.9997712 0-2.2058705 1.7939006-4.0002288 3.9997712-4.0002288 2.2058705 0 4.0002288 1.7943583 4.0002288 4.0002288 0 2.2058706-1.7943583 3.9997712-4.0002288 3.9997712zm0-5.9996567c-1.1027065 0-1.9998857.8967214-1.9998857 1.9998855 0 1.1027065.8971792 1.9998857 1.9998857 1.9998857 1.1031641 0 1.9998855-.8971792 1.9998855-1.9998857 0-1.1031641-.8967214-1.9998855-1.9998855-1.9998855z" fill="#fff" fill-rule="nonzero"/></g></svg>