<?xml version="1.0" encoding="UTF-8"?>
<svg width="60px" height="51px" viewBox="0 0 60 51" version="1.1" xmlns="http://www.w3.org/2000/svg" xmlns:xlink="http://www.w3.org/1999/xlink">
    <!-- Generator: Sketch 52.1 (67048) - http://www.bohemiancoding.com/sketch -->
    <title>Group 5</title>
    <desc>Created with Sketch.</desc>
    <g id="Page-1" stroke="none" stroke-width="1" fill="none" fill-rule="evenodd">
        <g id="Hamon_Home" transform="translate(-730.000000, -1204.000000)">
            <g id="Services_section" transform="translate(269.000000, 824.000000)">
                <g id="Group-5" transform="translate(461.000000, 380.000000)">
                    <path d="M39,51 C38.7441091,51 38.4877603,50.9020383 38.2927521,50.7070305 L32.5857875,45.0000763 L18.9997602,45.0000763 C18.4476949,45.0000763 18,44.5532978 18,43.9998601 L18,16.0002161 C18,15.4467785 18.4476949,15 18.9997602,15 L58.999782,15 C59.5518474,15 60,15.4467785 60,16.0002161 L60,43.9998601 C60,44.5532978 59.5518474,45.0000763 58.999782,45.0000763 L45.4137548,45.0000763 L39.7067902,50.7070305 C39.5117821,50.9020383 39.255891,51 39,51 Z M19.9999783,43.0001017 L33.0000654,43.0001017 C33.2651117,43.0001017 33.5200872,43.1049299 33.7068556,43.2930712 L39,48.5862059 L44.2931444,43.2930712 C44.4799128,43.1049299 44.7348883,43.0001017 44.9999346,43.0001017 L58.0000218,43.0001017 L58.0000218,16.9999745 L19.9999783,16.9999745 L19.9999783,43.0001017 Z" id="Shape" fill="#9B9B9B" fill-rule="nonzero"></path>
                    <path d="M19.0000217,32 L1.00021795,32 C0.448152617,32 0,31.5532222 0,31.0002432 L0,1.00021455 C0,0.44677777 0.448152617,0 1.00021795,0 L41.0002398,0 C41.5523051,0 42,0.44677777 42,1.00021455 L42,16.0002289 C42,16.5532079 41.5523051,16.9999857 41.0002398,16.9999857 L20.0002398,16.9999857 L20.0002398,31.0002432 C20.0002398,31.5532222 19.5520872,32 19.0000217,32 Z M1.99997817,30.0000286 L18.0002615,30.0000286 L18.0002615,16.0002289 C18.0002615,15.4467921 18.4479564,15.0000143 19.0000217,15.0000143 L40.0000217,15.0000143 L40.0000217,1.99997136 L1.99997817,1.99997136 L1.99997817,30.0000286 Z" id="Shape" fill="#9B9B9B" fill-rule="nonzero"></path>
                    <path d="M13.9997711,17 L5.99977112,17 C5.44769965,17 5,16.5532158 5,16.0002289 C5,15.4467842 5.44769965,15 5.99977112,15 L13.9997711,15 C14.5518425,15 15,15.4467842 15,16.0002289 C15,16.5532158 14.5518425,17 13.9997711,17 Z" id="Path" fill="#9B9B9B"></path>
                    <path d="M13.9997711,22 L5.99977112,22 C5.44769965,22 5,21.5527581 5,20.9997711 C5,20.4467842 5.44769965,20 5.99977112,20 L13.9997711,20 C14.5518425,20 15,20.4467842 15,20.9997711 C15,21.5527581 14.5518425,22 13.9997711,22 Z" id="Path" fill="#9B9B9B"></path>
                    <path d="M13.9997711,27 L5.99977112,27 C5.44769965,27 5,26.5532159 5,26.0002289 C5,25.447242 5.44769965,25 5.99977112,25 L13.9997711,25 C14.5518425,25 15,25.447242 15,26.0002289 C15,26.5532159 14.5518425,27 13.9997711,27 Z" id="Path" fill="#9B9B9B"></path>
                    <path d="M35.9997855,12 L5.99975681,12 C5.44769324,12 5,11.5532158 5,11.0002289 L5,5.00022896 C5,4.44724201 5.44769324,4 5.99975681,4 L35.9997855,4 C36.5518489,4 37,4.44724201 37,5.00022896 L37,11.0002289 C37,11.5532158 36.5518489,12 35.9997855,12 Z" id="Shape" fill="#5FB50C" fill-rule="nonzero"></path>
                    <path d="M39.0002288,43 C32.3832803,43 27,37.6171775 27,31.0002289 C27,24.3828225 32.3832803,19 39.0002288,19 C45.6171775,19 51,24.3828225 51,31.0002289 C51,37.6171775 45.6171775,43 39.0002288,43 Z" id="Shape" fill="#5FB50C" fill-rule="nonzero"></path>
                    <path d="M38.9999999,31 C36.7940031,31 35,29.2056417 35,26.9997712 C35,24.7939006 36.7940031,23 38.9999999,23 C41.2059968,23 43,24.7939006 43,26.9997712 C43,29.2056417 41.2059968,31 38.9999999,31 Z M38.9999999,24.9998855 C37.8967727,24.9998855 37,25.8970647 37,26.9997712 C37,28.1029353 37.8967727,28.9996567 38.9999999,28.9996567 C40.1027695,28.9996567 41,28.1029353 41,26.9997712 C41,25.8970647 40.1027695,24.9998855 38.9999999,24.9998855 Z" id="Shape" fill="#FFFFFF" fill-rule="nonzero"></path>
                    <path d="M36.0000001,37 C33.7940032,37 32,35.2060994 32,33.0002288 C32,30.7943583 33.7940032,29 36.0000001,29 C38.2059969,29 40,30.7943583 40,33.0002288 C40,35.2060994 38.2059969,37 36.0000001,37 Z M36.0000001,31.0003433 C34.8972305,31.0003433 34,31.8970647 34,33.0002288 C34,34.1029353 34.8972305,35.0001145 36.0000001,35.0001145 C37.1032273,35.0001145 38,34.1029353 38,33.0002288 C38,31.8970647 37.1032273,31.0003433 36.0000001,31.0003433 Z" id="Shape" fill="#FFFFFF" fill-rule="nonzero"></path>
                    <path d="M41.9997712,37 C39.7939006,37 38,35.2060994 38,33.0002288 C38,30.7943583 39.7939006,29 41.9997712,29 C44.2056417,29 46,30.7943583 46,33.0002288 C46,35.2060994 44.2056417,37 41.9997712,37 Z M41.9997712,31.0003433 C40.8970647,31.0003433 39.9998855,31.8970647 39.9998855,33.0002288 C39.9998855,34.1029353 40.8970647,35.0001145 41.9997712,35.0001145 C43.1029353,35.0001145 43.9996567,34.1029353 43.9996567,33.0002288 C43.9996567,31.8970647 43.1029353,31.0003433 41.9997712,31.0003433 Z" id="Shape" fill="#FFFFFF" fill-rule="nonzero"></path>
                </g>
            </g>
        </g>
    </g>
</svg>