<svg height="60" viewBox="0 0 60 60" width="60" xmlns="http://www.w3.org/2000/svg"><g fill="none" fill-rule="evenodd"><path d="m55.1612903 13.5483871h-4.8387097v1.9354839h4.8387097c1.60046 0 2.9032258 1.3027658 2.9032258 2.9032258v26.1290322h-56.12903223v-26.1290322c0-1.60046 1.30276585-2.9032258 2.90322581-2.9032258h4.83870967v-1.9354839h-4.83870967c-2.66790581 0-4.83870968 2.1708039-4.83870968 4.8387097v30.9677419c0 2.6679058 2.17080387 4.8387097 4.83870968 4.8387097h12.58064512v3.8709677h-3.8709677v1.9354839h32.9032258v-1.9354839h-3.8709677v-3.8709677h12.5806451c2.6679058 0 4.8387097-2.1708039 4.8387097-4.8387097v-30.9677419c0-2.6679058-2.1708039-4.8387097-4.8387097-4.8387097zm-14.516129 44.516129h-21.2903226v-3.8709677h21.2903226zm14.516129-5.8064516h-50.32258062c-1.60045996 0-2.90322581-1.3027658-2.90322581-2.9032258v-2.9032258h56.12903223v2.9032258c0 1.60046-1.3027658 2.9032258-2.9032258 2.9032258z" fill="#9b9b9b" fill-rule="nonzero"/><path d="m46.4516129 48.3870968h1.9354839v1.9354838h-1.9354839z" fill="#5ab30e"/><path d="m50.3225806 48.3870968h1.9354839v1.9354838h-1.9354839z" fill="#5ab30e"/><path d="m54.1935484 48.3870968h1.9354839v1.9354838h-1.9354839z" fill="#5ab30e"/><path d="m42.5806452 40.6451613h13.5483871v1.9354839h-13.5483871z" fill="#9b9b9b"/><path d="m42.5806452 36.7741935h13.5483871v1.9354839h-13.5483871z" fill="#9b9b9b"/><path d="m44.516129 32.9032258h11.6129033v1.9354839h-11.6129033z" fill="#9b9b9b"/><path d="m48.3870968 29.0322581h7.7419355v1.9354838h-7.7419355z" fill="#9b9b9b"/><path d="m16.7856918 15.406376.1469568-.5457725c.3057271-1.1359627.7536858-2.219947 1.3315903-3.2236012l.282573-.4895413-1.7025263-2.8725114 3.0445122-3.04356726 2.8725114 1.70158137.4904864-.28257315c1.0017642-.57790439 2.0857485-1.02586306 3.2217112-1.33159016l.5457724-.14695693.8283455-3.2363596h4.3038055l.8283454 3.23730472.5457725.14695681c1.1359627.3057271 2.2199471.75368577 3.2217113 1.33159029l.4904863.28257302 2.8720389-1.70110887 3.0445123 3.04309476-1.702054 2.8725114.2825731.4895413c.5779045 1.0027092 1.0258632 2.0876387 1.3315903 3.2236014l.1469569.5457724 3.2382497.8274004v4.3038054l-3.2373047.8283455-.1469568.5457725c-.3057271 1.1359627-.7536858 2.2199471-1.3315903 3.2236014l-.282573.4895413 1.7025263 2.8725114-3.0445122 3.0430947-2.8725114-1.7011089-.4904864.2825731c-1.0017642.5779045-2.0857485 1.0258631-3.2217112 1.3315902l-.5457724.1469569-.8283455 3.2373047h-4.3038055l-.8283454-3.2373047-.5457725-.1469569c-1.1359627-.3057271-2.2199471-.7536857-3.2217113-1.3315902l-.4904863-.2825731-2.8720389 1.7011089-3.0445123-3.0430947 1.702054-2.8725114-.2825731-.4895413c-.5779045-1.0027093-1.0258632-2.0876387-1.3315902-3.2236014l-.146957-.5457725-3.2382497-.8274003v-4.3038055z" fill="#5ab30e"/><path d="m11.6129032 14.7330204v2.6863344h-7.74193546v25.1612904h19.35483876v-10.2978516c.7073777.3444745 1.4369644.6483115 2.195848.8826865l.9242692 3.6087134h7.3090978l.9242691-3.6087134c.9143459-.2825731 1.7979775-.6473665 2.6371913-1.0887097l3.2023374 1.8967364 5.1685358-5.1675908-1.8976814-3.2032824c.4422883-.8382687.8070816-1.7219003 1.0896546-2.6362462l3.6077685-.9252143v-7.3090978l-3.6087135-.9242691c-.2825731-.914346-.6473664-1.7979776-1.0896548-2.6362463l1.8976815-3.2032824-5.1685357-5.16759073-3.2023374 1.89673633c-.8382688-.4422883-1.7219004-.80613653-2.6371914-1.08870967l-.9242692-3.60871343h-7.3090978l-.9242691 3.60871343c-.9143459.28257314-1.7979775.64736649-2.6371913 1.08870967l-3.2023374-1.89673633-5.1685358 5.16759073 1.8976814 3.2032824c-.4422883.8382687-.8070816 1.7219003-1.0896546 2.6362463zm-5.80645159 25.9121409v-21.2903226h5.80645159v2.6863344l3.6087135.9242692c.2825731.914346.6473664 1.7979776 1.0896548 2.6362462l-1.8976815 3.2032825 5.1685357 5.1675908 1.7081969-1.0112147v7.6838142zm10.97924019-25.2387853.1469568-.5457725c.3057271-1.1359627.7536858-2.219947 1.3315903-3.2236012l.282573-.4895413-1.7025263-2.8725114 3.0445122-3.04356726 2.8725114 1.70158137.4904864-.28257315c1.0017642-.57790439 2.0857485-1.02586306 3.2217112-1.33159016l.5457724-.14695693.8283455-3.2363596h4.3038055l.8283454 3.23730472.5457725.14695681c1.1359627.3057271 2.2199471.75368577 3.2217113 1.33159029l.4904863.28257302 2.8720389-1.70110887 3.0445123 3.04309476-1.702054 2.8725114.2825731.4895413c.5779045 1.0027092 1.0258632 2.0876387 1.3315903 3.2236014l.1469569.5457724 3.2382497.8274004v4.3038054l-3.2373047.8283455-.1469568.5457725c-.3057271 1.1359627-.7536858 2.2199471-1.3315903 3.2236013l-.282573.4895414 1.7025263 2.8725114-3.0445122 3.0430947-2.8725114-1.7011089-.4904864.2825731c-1.0017642.5779045-2.0857485 1.0258631-3.2217112 1.3315902l-.5457724.1469569-.8283455 3.2373047h-4.3038055l-.8283454-3.2373047-.5457725-.1469569c-1.1359627-.3057271-2.2199471-.7536857-3.2217113-1.3315902l-.4904863-.2825731-2.8720389 1.7011089-3.0445123-3.0430947 1.702054-2.8725114-.2825731-.4895413c-.5779045-1.0027093-1.0258632-2.0876387-1.3315902-3.2236014l-.146957-.5457725-3.2382497-.8274003v-4.3038055z" fill="#5ab30e" fill-rule="nonzero"/><path d="m30 30c6.4037298 0 11.6129032-5.2091734 11.6129032-11.6129032 0-6.4037299-5.2091734-11.61290325-11.6129032-11.61290325s-11.6129032 5.20917335-11.6129032 11.61290325c0 6.4037298 5.2091734 11.6129032 11.6129032 11.6129032zm0-21.29032258c5.336284 0 9.6774194 4.34113538 9.6774194 9.67741938s-4.3411354 9.6774193-9.6774194 9.6774193-9.6774194-4.3411353-9.6774194-9.6774193 4.3411354-9.67741938 9.6774194-9.67741938z" fill="#fff" fill-rule="nonzero"/><path d="m30 26.1290323c4.2688381 0 7.7419355-3.4730974 7.7419355-7.7419355 0-4.2688382-3.4730974-7.7419355-7.7419355-7.7419355s-7.7419355 3.4730973-7.7419355 7.7419355c0 4.2688381 3.4730974 7.7419355 7.7419355 7.7419355zm0-13.5483871c3.2023374 0 5.8064516 2.6041142 5.8064516 5.8064516s-2.6041142 5.8064516-5.8064516 5.8064516-5.8064516-2.6041142-5.8064516-5.8064516 2.6041142-5.8064516 5.8064516-5.8064516z" fill="#fff" fill-rule="nonzero"/><path d="m27.0967742 17.4193548h1.9354839v1.9354839h-1.9354839z" fill="#fff"/><path d="m30.9677419 17.4193548h1.9354839v1.9354839h-1.9354839z" fill="#fff"/><g fill="#9b9b9b"><path d="m7.74193548 21.2903226h1.93548387v1.9354839h-1.93548387z"/><path d="m7.74193548 25.1612903h3.87096772v1.9354839h-3.87096772z"/><path d="m7.74193548 29.0322581h3.87096772v1.9354838h-3.87096772z"/><path d="m7.74193548 32.9032258h7.74193552v1.9354839h-7.74193552z"/><path d="m7.74193548 36.7741935h11.61290322v1.9354839h-11.61290322z"/></g></g></svg>