<svg height="55" viewBox="0 0 60 55" width="60" xmlns="http://www.w3.org/2000/svg"><g fill="none" fill-rule="evenodd"><path d="m29 34h16v7h-16z" fill="#5fb50b"/><g><g fill="#5fb50b"><path d="m37 48h2v2h-2z"/><path d="m41 48h2v2h-2z"/><path d="m15 46h15v7h-15z"/><path d="m17 36.126125h2v2h-2z"/><path d="m21 36.126125h2v2h-2z"/></g><path d="m47 12.126125c-.578625.00025-1.1565.039-1.73.116-2.69475-8.98975-12.167-14.092875-21.15675-11.398125-6.85525 2.054875-11.68825 8.184625-12.08725 15.330125-.341-.032-.684-.048-1.026-.048-6.075125 0-11 4.924875-11 11s4.924875 11 11 11h2v3c0 .55225.44775 1 1 1h2v2h-2c-.55225 0-1 .44775-1 1v8c0 .55225.44775 1 1 1h32c.55225 0 1-.44775 1-1v-8c0-.55225-.44775-1-1-1h-2v-2h2c.55225 0 1-.44775 1-1v-3c7.17975 0 13-5.82025 13-13s-5.82025-13-13-13zm-2 28h-30v-6h30zm0 6v6h-30v-6zm-27-2v-2h24v2zm31.249125-8.233c-.73975.15475-1.493375.23275-2.249125.233v-3c0-.55225-.44775-1-1-1h-10v-9h9.184c.55225 1.562125 2.266375 2.38075 3.828375 1.828375 1.562125-.55225 2.38075-2.266375 1.828375-3.828375-.55225-1.562125-2.266375-2.38075-3.828375-1.828375-.854375.302-1.526375.974125-1.828375 1.828375h-10.184c-.55225 0-1 .44775-1 1v10h-5v-19h4.184c.55225 1.562125 2.266375 2.38075 3.828375 1.828375 1.562125-.55225 2.38075-2.266375 1.828375-3.828375-.55225-1.562125-2.266375-2.38075-3.828375-1.828375-.854375.302-1.526375.974125-1.828375 1.828375h-5.184c-.55225 0-1 .44775-1 1v20h-5v-7c0-.55225-.44775-1-1-1h-5.184c-.55225-1.562125-2.266375-2.38075-3.828375-1.828375s-2.38075 2.266375-1.828375 3.828375 2.266375 2.38075 3.828375 1.828375c.854375-.302 1.526375-.974125 1.828375-1.828375h4.184v6h-6c-.55225 0-1 .44775-1 1v3h-2c-4.970625 0-9-4.0295-9-9 0-4.970625 4.029375-9 9-9 .608625.0005 1.215625.06175 1.812.183.2965.058.603375-.019375.837-.211.23275-.19325.3655-.4815.361-.784 0-.02-.009-.168-.01-.188-.0055-8.279875 6.702125-14.9965 14.982-15.002 6.93425-.004625 12.96675 4.74675 14.587 11.489.126.525625.64675.856 1.176.746 5.9465-1.24375 11.77525 2.5685 13.019 8.515s-2.5685 11.77525-8.514875 13.019zm-2.249125-13.767c0-.55225.44775-1 1-1s1 .44775 1 1-.44775 1-1 1-1-.44775-1-1zm-12-10c0-.55225.44775-1 1-1s1 .44775 1 1-.44775 1-1 1-1-.44775-1-1zm-21 13c0 .55225-.44775 1-1 1s-1-.44775-1-1 .44775-1 1-1 1 .447625 1 1z" fill="#9b9b9b" fill-rule="nonzero"/></g></g></svg>