<svg height="58" viewBox="0 0 58 58" width="58" xmlns="http://www.w3.org/2000/svg" xmlns:xlink="http://www.w3.org/1999/xlink"><mask id="a" fill="#fff"><path d="m.0336 0h23.9364638v57.9999773h-23.9364638z" fill="#fff" fill-rule="evenodd"/></mask><mask id="b" fill="#fff"><path d="m0 58h58v-58h-58z" fill="#fff" fill-rule="evenodd"/></mask><g fill="none" fill-rule="evenodd"><path d="m5.25 33.8989223c-1.99412691-.4639058-3.5-2.4839726-3.5-4.8989223s1.50587309-4.4350165 3.5-4.8989223zm-5.25-4.8989223c0 3.858979 2.74833495 7 6.125 7h.875v-14h-.875c-3.37666505 0-6.125 3.141021-6.125 7z" fill="#9b9b9b"/><path d="m22.0551652 39.1584734c-1.6477681-.4181211-2.8723478-1.8701601-2.8723478-3.6091406h-1.9150145c0 2.7756172 2.0748985 5.0805508 4.7873623 5.5286914v3.825168h-4.7873623c-5.8068406 0-10.53194203-4.6165508-10.53194203-10.2902422v-15.9033281h.74678261c5.24684062 0 10.35014492-1.627625 14.57252172-4.6193828zm-22.0215652-18.5778984h1.91501449c0-10.3164102 8.59026091-18.70964453 19.14910141-18.70964453h.9574493v9.85444923c-4.0969275 3.3003359-9.2537971 5.113289-14.57252172 5.113289h-2.66168116v17.7742813c0 6.0675703 4.57750725 11.0975977 10.53194198 12.0021484v11.3848789h8.6171595v-9.3548789h-1.9148986v7.4839258h-4.7873623v-9.3547656h6.7022609v-46.77428126h-2.8723479c-11.61495648 0-21.0641159 9.2323086-21.0641159 20.58059766z" fill="#9b9b9b" mask="url(#a)" transform="translate(4)"/><path d="m19 26c.5520707 0 1 .4480504 1 1 0 .5520707-.4479293 1-1 1s-1-.4479293-1-1c0-.5519496.4479293-1 1-1m0 4c1.6540325 0 3-1.3459675 3-3 0-1.6539114-1.3459675-3-3-3s-3 1.3460886-3 3c0 1.6540325 1.3459675 3 3 3" fill="#9b9b9b"/><g fill="#5eb50c"><path d="m52.75 33.8989223v-9.7988133c1.9941269.4648745 3.5 2.4838514 3.5 4.8989223 0 2.4149497-1.5058731 4.4359852-3.5 4.899891m-.875-11.8989223h-.875v14h.875c3.3766651 0 6.125-3.141021 6.125-7s-2.7483349-7-6.125-7"/><path d="m30 18.8749858h16.2000109v15.9376064c0 5.6859206-4.441448 10.312422-9.8999401 10.312422h-6.3000708v1.8749858h6.3000708c6.4511235 0 11.6999292-5.4674977 11.6999292-12.1874078v-17.8125922h-18z"/><path d="m36.3000708 0h-6.3000708v1.87498581h1.7999891v3.74997162h-1.7999891v1.87498581h3.6000872v-5.62495743h1.7999891v7.50005676h-5.4000763v1.87498583h7.2000654v-9.32724839c5.0381385.47533093 8.9999455 4.89476194 8.9999455 10.26474129v2.8124787h1.7999891v-2.8124787c0-6.72002363-5.2486967-12.1875213-11.6999292-12.1875213"/><path d="m51 2c.5520707 0 1 .44805038 1 1s-.4479293 1-1 1-1-.44805038-1-1 .4479293-1 1-1zm-1 8h2v-4.18394284c1.1610559-.41402277 2-1.51404699 2-2.81605716 0-1.65403245-1.3459675-3-3-3s-3 1.34596755-3 3c0 1.30201017.8389441 2.40203439 2 2.81605716z"/><path d="m33.6666297 39.2500265h1.8333148v-3.499947h-1.8333148zm3.6667406-3.499947c1.0110094 0 1.8333149.7848179 1.8333149 1.7498675 0 .9652615-.8223055 1.7500795-1.8333149 1.7500795zm3.6666297 1.7498675c0-1.9302051-1.6444998-3.499947-3.6666297-3.499947h-7.3333703v1.7500795h1.8333148v3.499947h-1.8333148v1.7499735h7.3333703c2.0221299 0 3.6666297-1.5697419 3.6666297-3.500053z" mask="url(#b)"/><path d="m36.9999395 27.4139451 1.2850413 1.2849203c-.39101.1880577-.8230707.3010377-1.2850413.3010377-.4619707 0-.8940314-.11298-1.2849203-.3010377zm-2.699047-.1289643c-.1879367-.39101-.3009167-.8230707-.3009167-1.2850413 0-.4619707.11298-.8940314.3009167-1.2850414l1.2850413 1.2850414zm2.699047-4.285005c.4619706 0 .8940313.11298 1.2850413.3010378l-1.2850413 1.2849202-1.2849203-1.2849202c.3908889-.1880578.8229496-.3010378 1.2849203-.3010378zm2.6990469 1.7149223c.1879367.39101.3009167.8230707.3009167 1.2850414 0 .4619706-.11298.8940313-.3009167 1.2850413l-1.2850413-1.2850413zm2.3010136 1.2850414c0-2.7569296-2.2430099-4.9999395-5.0000605-4.9999395-2.7570507 0-4.9999395 2.2430099-4.9999395 4.9999395 0 2.7569295 2.2428888 5.0000605 4.9999395 5.0000605 2.7570506 0 5.0000605-2.243131 5.0000605-5.0000605z" mask="url(#b)"/><path d="m31 15h2v-2h-2z" mask="url(#b)"/><path d="m35 15h2v-2h-2z" mask="url(#b)"/><path d="m41 15h2v-2h-2z" mask="url(#b)"/><path d="m37.4666064 48h-1.8666516v3.9999516h-5.5999548v2.0000968h12.1333484v1.9998547h-12.1333484v2.0000969h14v-6.0000484h-6.5333936z" mask="url(#b)"/><path d="m50 21h2v-10h-2z" mask="url(#b)"/></g></g></svg>