<?xml version="1.0" encoding="UTF-8"?>
<svg width="58px" height="58px" viewBox="0 0 58 58" version="1.1" xmlns="http://www.w3.org/2000/svg" xmlns:xlink="http://www.w3.org/1999/xlink">
    <!-- Generator: Sketch 52.1 (67048) - http://www.bohemiancoding.com/sketch -->
    <title>iconAi</title>
    <desc>Created with Sketch.</desc>
    <defs>
        <polygon id="path-1" points="0.0336 0 23.9700638 0 23.9700638 57.9999773 0.0336 57.9999773"></polygon>
        <polygon id="path-3" points="0 58 58 58 58 0 0 0"></polygon>
    </defs>
    <g id="Page-1" stroke="none" stroke-width="1" fill="none" fill-rule="evenodd">
        <g id="Hamon_Home" transform="translate(-241.000000, -995.000000)">
            <g id="iconAi" transform="translate(241.000000, 995.000000)">
                <path d="M5.25,33.8989223 C3.25587309,33.4350165 1.75,31.4149497 1.75,29 C1.75,26.5850503 3.25587309,24.5649835 5.25,24.1010777 L5.25,33.8989223 Z M0,29 C0,32.858979 2.74833495,36 6.125,36 L7,36 L7,22 L6.125,22 C2.74833495,22 0,25.141021 0,29 Z" id="Fill-1" fill="#9B9B9B"></path>
                <g id="Group-5" transform="translate(4.000000, 0.000000)">
                    <mask id="mask-2" fill="white">
                        <use xlink:href="#path-1"></use>
                    </mask>
                    <g id="Clip-4"></g>
                    <path d="M22.0551652,39.1584734 C20.4073971,38.7403523 19.1828174,37.2883133 19.1828174,35.5493328 L17.2678029,35.5493328 C17.2678029,38.32495 19.3427014,40.6298836 22.0551652,41.0780242 L22.0551652,44.9031922 L17.2678029,44.9031922 C11.4609623,44.9031922 6.73586087,40.2866414 6.73586087,34.61295 L6.73586087,18.7096219 L7.48264348,18.7096219 C12.7294841,18.7096219 17.8327884,17.0819969 22.0551652,14.0902391 L22.0551652,39.1584734 Z M0.0336,20.580575 L1.94861449,20.580575 C1.94861449,10.2641648 10.5388754,1.87093047 21.0977159,1.87093047 L22.0551652,1.87093047 L22.0551652,11.7253797 C17.9582377,15.0257156 12.8013681,16.8386687 7.48264348,16.8386687 L4.82096232,16.8386687 L4.82096232,34.61295 C4.82096232,40.6805203 9.39846957,45.7105477 15.3529043,46.6150984 L15.3529043,57.9999773 L23.9700638,57.9999773 L23.9700638,48.6450984 L22.0551652,48.6450984 L22.0551652,56.1290242 L17.2678029,56.1290242 L17.2678029,46.7742586 L23.9700638,46.7742586 L23.9700638,-2.265625e-05 L21.0977159,-2.265625e-05 C9.48275942,-2.265625e-05 0.0336,9.23228594 0.0336,20.580575 Z" id="Fill-3" fill="#9B9B9B" mask="url(#mask-2)"></path>
                </g>
                <path d="M19,26 C19.5520707,26 20,26.4480504 20,27 C20,27.5520707 19.5520707,28 19,28 C18.4479293,28 18,27.5520707 18,27 C18,26.4480504 18.4479293,26 19,26 M19,30 C20.6540325,30 22,28.6540325 22,27 C22,25.3460886 20.6540325,24 19,24 C17.3459675,24 16,25.3460886 16,27 C16,28.6540325 17.3459675,30 19,30" id="Fill-6" fill="#9B9B9B"></path>
                <path d="M52.75,33.8989223 L52.75,24.100109 C54.7441269,24.5649835 56.25,26.5839604 56.25,28.9990313 C56.25,31.413981 54.7441269,33.4350165 52.75,33.8989223 M51.875,22 L51,22 L51,36 L51.875,36 C55.2516651,36 58,32.858979 58,29 C58,25.141021 55.2516651,22 51.875,22" id="Fill-8" fill="#5EB50C"></path>
                <path d="M30,18.8749858 L46.2000109,18.8749858 L46.2000109,34.8125922 C46.2000109,40.4985128 41.7585629,45.1250142 36.3000708,45.1250142 L30,45.1250142 L30,47 L36.3000708,47 C42.7511943,47 48,41.5325023 48,34.8125922 L48,17 L30,17 L30,18.8749858 Z" id="Fill-10" fill="#5EB50C"></path>
                <path d="M36.3000708,0 L30,0 L30,1.87498581 L31.7999891,1.87498581 L31.7999891,5.62495743 L30,5.62495743 L30,7.49994324 L33.6000872,7.49994324 L33.6000872,1.87498581 L35.4000763,1.87498581 L35.4000763,9.37504257 L30,9.37504257 L30,11.2500284 L37.2000654,11.2500284 L37.2000654,1.92278001 C42.2382039,2.39811094 46.2000109,6.81754195 46.2000109,12.1875213 L46.2000109,15 L48,15 L48,12.1875213 C48,5.46749767 42.7513033,0 36.3000708,0" id="Fill-12" fill="#5EB50C"></path>
                <path d="M51,2 C51.5520707,2 52,2.44805038 52,3 C52,3.55194962 51.5520707,4 51,4 C50.4479293,4 50,3.55194962 50,3 C50,2.44805038 50.4479293,2 51,2 Z M50,10 L52,10 L52,5.81605716 C53.1610559,5.40203439 54,4.30201017 54,3 C54,1.34596755 52.6540325,0 51,0 C49.3459675,0 48,1.34596755 48,3 C48,4.30201017 48.8389441,5.40203439 50,5.81605716 L50,10 Z" id="Fill-14" fill="#5EB50C"></path>
                <mask id="mask-4" fill="white">
                    <use xlink:href="#path-3"></use>
                </mask>
                <g id="Clip-17"></g>
                <path d="M33.6666297,39.2500265 L35.4999445,39.2500265 L35.4999445,35.7500795 L33.6666297,35.7500795 L33.6666297,39.2500265 Z M37.3333703,35.7500795 C38.3443797,35.7500795 39.1666852,36.5348974 39.1666852,37.499947 C39.1666852,38.4652085 38.3443797,39.2500265 37.3333703,39.2500265 L37.3333703,35.7500795 Z M41,37.499947 C41,35.5697419 39.3555002,34 37.3333703,34 L30,34 L30,35.7500795 L31.8333148,35.7500795 L31.8333148,39.2500265 L30,39.2500265 L30,41 L37.3333703,41 C39.3555002,41 41,39.4302581 41,37.499947 Z" id="Fill-16" fill="#5EB50C" mask="url(#mask-4)"></path>
                <path d="M36.9999395,27.4139451 L38.2849808,28.6988654 C37.8939708,28.8869231 37.4619101,28.9999031 36.9999395,28.9999031 C36.5379688,28.9999031 36.1059081,28.8869231 35.7150192,28.6988654 L36.9999395,27.4139451 Z M34.3008925,27.2849808 C34.1129558,26.8939708 33.9999758,26.4619101 33.9999758,25.9999395 C33.9999758,25.5379688 34.1129558,25.1059081 34.3008925,24.7148981 L35.5859338,25.9999395 L34.3008925,27.2849808 Z M36.9999395,22.9999758 C37.4619101,22.9999758 37.8939708,23.1129558 38.2849808,23.3010136 L36.9999395,24.5859338 L35.7150192,23.3010136 C36.1059081,23.1129558 36.5379688,22.9999758 36.9999395,22.9999758 Z M39.6989864,24.7148981 C39.8869231,25.1059081 39.9999031,25.5379688 39.9999031,25.9999395 C39.9999031,26.4619101 39.8869231,26.8939708 39.6989864,27.2849808 L38.4139451,25.9999395 L39.6989864,24.7148981 Z M42,25.9999395 C42,23.2430099 39.7569901,21 36.9999395,21 C34.2428888,21 32,23.2430099 32,25.9999395 C32,28.756869 34.2428888,31 36.9999395,31 C39.7569901,31 42,28.756869 42,25.9999395 Z" id="Fill-18" fill="#5EB50C" mask="url(#mask-4)"></path>
                <polygon id="Fill-19" fill="#5EB50C" mask="url(#mask-4)" points="31 15 33 15 33 13 31 13"></polygon>
                <polygon id="Fill-20" fill="#5EB50C" mask="url(#mask-4)" points="35 15 37 15 37 13 35 13"></polygon>
                <polygon id="Fill-21" fill="#5EB50C" mask="url(#mask-4)" points="41 15 43 15 43 13 41 13"></polygon>
                <polygon id="Fill-22" fill="#5EB50C" mask="url(#mask-4)" points="37.4666064 48 35.5999548 48 35.5999548 51.9999516 30 51.9999516 30 54.0000484 42.1333484 54.0000484 42.1333484 55.9999031 30 55.9999031 30 58 44 58 44 51.9999516 37.4666064 51.9999516"></polygon>
                <polygon id="Fill-23" fill="#5EB50C" mask="url(#mask-4)" points="50 21 52 21 52 11 50 11"></polygon>
            </g>
        </g>
    </g>
</svg>