<svg height="13" viewBox="0 0 14 13" width="14" xmlns="http://www.w3.org/2000/svg"><path d="m37.1054688 188.157492c.0455731-.036458.0934242-.06608.1435546-.088867.0501305-.022787.1025388-.03418.1572266-.03418.1184902 0 .2210282.043294.3076172.129883s.1298828.189127.1298828.307617c0 .054688-.0113931.109375-.0341797.164063s-.0524087.10026-.0888672.136719l-3.3496093 3.349609c-.0364586.045573-.082031.079752-.1367188.102539s-.1093747.03418-.1640625.03418c-.0638024 0-.1230466-.011393-.1777344-.03418-.0546877-.022787-.1002602-.056966-.1367187-.102539l-1.4765625-1.476563c-.0364585-.036458-.0660806-.079752-.0888672-.129882-.0227866-.050131-.0341797-.102539-.0341797-.157227 0-.127605.0432938-.232421.1298828-.314453s.189127-.123047.3076172-.123047c.0638024 0 .120768.009115.1708984.027344.0501305.018229.0934243.045573.1298828.082031l1.1757813 1.162109zm-2.1054688-4.142578c.8476605 0 1.6406213.159504 2.3789062.478516.7473996.319012 1.3990858.756507 1.9550782 1.3125.5559923.555992.993488 1.207678 1.3125 1.955078.319012.738285.4785156 1.531246.4785156 2.378906 0 .847661-.1595036 1.640621-.4785156 2.378906-.319012.7474-.7565077 1.399086-1.3125 1.955078-.5559924.555993-1.2076786.993488-1.9550782 1.3125-.7382849.319012-1.5312457.478516-2.3789062.478516s-1.6406213-.159504-2.3789062-.478516c-.7473996-.319012-1.3990858-.756507-1.9550782-1.3125-.5559923-.555992-.993488-1.207678-1.3125-1.955078-.319012-.738285-.4785156-1.531245-.4785156-2.378906 0-.84766.1595036-1.640621.4785156-2.378906.319012-.7474.7565077-1.399086 1.3125-1.955078.5559924-.555993 1.2076786-.993488 1.9550782-1.3125.7382849-.319012 1.5312457-.478516 2.3789062-.478516zm0 11.375c.7291703 0 1.4082-.136717 2.0371094-.410156.638024-.273439 1.1962866-.649412 1.6748047-1.12793.478518-.478518.8544908-1.036781 1.1279297-1.674805.2734388-.628909.4101562-1.307939.4101562-2.037109s-.1367174-1.4082-.4101562-2.037109c-.2734389-.638024-.6494117-1.196287-1.1279297-1.674805-.4785181-.478518-1.0367807-.854491-1.6748047-1.12793-.6289094-.273439-1.3079391-.410156-2.0371094-.410156s-1.4082.136717-2.0371094.410156c-.638024.273439-1.1962866.649412-1.6748047 1.12793-.478518.478518-.8544908 1.036781-1.1279297 1.674805-.2734388.628909-.4101562 1.307939-.4101562 2.037109s.1367174 1.4082.4101562 2.037109c.2734389.638024.6494117 1.196287 1.1279297 1.674805.4785181.478518 1.0367807.854491 1.6748047 1.12793.6289094.273439 1.3079391.410156 2.0371094.410156z" fill="#4a4a4a" fill-rule="evenodd" transform="translate(-28 -184)"/></svg>