<svg height="120" viewBox="0 0 120 120" width="120" xmlns="http://www.w3.org/2000/svg"><g fill="none" fill-rule="evenodd"><path d="m61.664 84.8905-7.664-11.496v-10.3945c0-14.91175-12.08825-27-27-27s-27 12.08825-27 27v55c-.00025 1.10425.89475 1.99975 1.999 2h22.001c1.10425.00025 1.99975-.89475 2-1.999v-14.001h26c1.10425.00025 1.99975-.89475 2-1.999v-14.001h6c1.1045 0 2-.89525 2-1.99975 0-.395-.11675-.781-.336-1.10975zm-9.664-.8905c-1.10425-.00025-1.99975.89475-2 1.999v.001 14h-26c-1.10425-.00025-1.99975.89475-2 1.999v.001 14h-18v-53c0-12.7025 10.2975-23 23-23s23 10.2975 23 23v11c.00025.39475.117.78075.336 1.1095l5.92775 8.8905z" fill="#4a4a4a" fill-rule="nonzero"/><path d="m28 54c-3.31375 0-6 2.68625-6 6 .0035 3.31225 2.68775 5.9965 6 6 3.31375 0 6-2.68625 6-6s-2.68625-6-6-6zm0 8c-1.1045 0-2-.8955-2-2 .001-1.104.896-1.999 2-2 1.1045 0 2 .8955 2 2s-.8955 2-2 2z" fill="#62b60a" fill-rule="nonzero"/><path d="m42.7755 56.34475-2.3105-1.1895c-.07025-.17975-.1445-.3595-.2245-.538l.793-2.4805c.1975-.6215.08025-1.30025-.3145-1.81925-.87025-1.143-1.8905-2.1635-3.03325-3.03425-.52-.39525-1.19975-.513-1.82225-.3155l-2.4805.792c-.17775-.079-.3575-.15425-.537-.2245l-1.1915-2.3105c-.3425-.66575-1.0285-1.08425-1.77725-1.084h-3.754c-.74875-.00025-1.43475.41825-1.77725 1.084l-1.1915 2.3105c-.17975.07025-.3575.1455-.53525.2245l-2.4805-.793c-.6225-.1985-1.3025-.08125-1.82225.3145-1.143.87175-2.16375 1.893-3.03525 3.036-.3945.51925-.512 1.19775-.3145 1.81925l.793 2.4805c-.08.17875-.15425.3585-.2245.538l-2.3105 1.1895c-.66575.34325-1.084 1.02925-1.084 1.77825v3.75275c-.00025.74875.41825 1.43475 1.084 1.77725l2.3105 1.1915c.07025.17975.1445.3585.2245.538l-.793 2.4805c-.1975.6215-.08 1.30025.3145 1.81925.87025 1.143 1.8905 2.1635 3.03325 3.03425.51875.398 1.2.516 1.82225.3155l2.4805-.792c.17775.079.3575.15425.537.2245l1.1915 2.3105c.3425.66575 1.0285 1.08425 1.77725 1.084h3.754c.74875.00025 1.43475-.41825 1.77725-1.084l1.1915-2.3105c.17975-.07025.3575-.1455.537-.2245l2.4785.792c.62175.197 1.30025.08025 1.82025-.3135 1.14475-.8705 2.16625-1.89175 3.037-3.03625.3945-.51925.51175-1.19775.3145-1.81925l-.793-2.4805c.08-.17875.15425-.3585.2245-.538l2.3105-1.1895c.66575-.34325 1.084-1.0295 1.084-1.77825v-3.754c.0005-.74825-.41775-1.4345-1.0835-1.77775zm-2.916 4.3125-1.92975.99425c-.47475.24475-.832.66925-.99225 1.17875-.16275.511-.36975 1.00675-.61925 1.4815-.244.47275-.29125 1.023-.13075 1.53025l.70125 2.19625c-.26825.298-.552.582-.8495.8505l-2.19525-.70125c-.50675-.162-1.05725-.11525-1.52925.13-.4775.24925-.97525.4575-1.48825.622-.5075.161-.93.51775-1.17375.99125l-.99425 1.92875h-1.3165l-.99425-1.92875c-.24375-.4735-.66625-.83025-1.17375-.99125-.513-.1645-1.01075-.37275-1.48825-.622-.472-.24525-1.0225-.292-1.52925-.13l-2.19525.70125c-.2975-.269-.581-.55275-.8495-.8505l.70125-2.19625c.16025-.50725.11325-1.0575-.13075-1.53025-.24925-.47475-.4565-.9705-.61925-1.4815-.16025-.50925-.5175-.93325-.99225-1.17775l-1.92975-.995v-1.3145l1.92975-.99425c.47475-.24475.832-.66925.99225-1.17875.16275-.511.36975-1.00675.61925-1.4815.24425-.47275.29125-1.023.13075-1.53025l-.70125-2.19625c.26875-.2985.553-.58275.8515-.8515l2.19525.70225c.508.16225 1.06.115 1.53325-.13075.47525-.24975.97125-.4575 1.4825-.621.5075-.161.93-.51775 1.17375-.99125l.99425-1.92875h1.3165l.99425 1.92875c.24375.4735.66625.83025 1.17375.99125.513.1645 1.01075.37275 1.48825.622.47225.24525 1.0225.292 1.52925.13l2.19525-.70125c.2975.269.581.55275.8495.8505l-.70125 2.19625c-.16025.50725-.11325 1.0575.13075 1.53025.24925.47475.4565.9705.61925 1.4815.16025.5095.5175.93375.99225 1.17875l1.92975.99425v1.314z" fill="#65b708" fill-rule="nonzero"/><path d="m110 32c0-12.13075-8.97275-22-20-22s-20 9.86925-20 22c-.03125 4.7885 1.4145 9.47025 4.14075 13.40725 2.115 3.773 3.38175 7.962 3.7125 12.27475-2.352 2.228-2.48225 5.9305-.2925 8.31825-2.2235 2.4375-2.05025 6.21575.387 8.4395 1.10725 1.01 2.55375 1.567 4.05225 1.5605h16c3.29925.0145 5.9855-2.6485 6-5.94775.0065-1.49875-.5505-2.94525-1.5605-4.05225 2.18975-2.3875 2.0595-6.09025-.2925-8.318.33075-4.314 1.59825-8.50375 3.71425-12.2775 2.725-3.93675 4.17025-8.6175 4.13875-13.40475zm-12 40h-16c-1.1045 0-2-.8955-2-2s.8955-2 2-2h16c1.1045 0 2 .8955 2 2s-.8955 2-2 2zm0-8h-16c-1.1045 0-2-.8955-2-2s.8955-2 2-2h16c1.104.001 1.999.896 2 2-.001 1.104-.896 1.999-2 2zm.309-7.96875c-.1045-.0055-.20325-.03125-.309-.03125h-16c-.10575 0-.2045.02575-.309.03125-.48225-4.5615-1.93875-8.96625-4.271-12.916-2.2565-3.265-3.45075-7.1465-3.42-11.11525 0-9.92475 7.17775-18 16-18s16 8.07525 16 18c.031 3.9675-1.1625 7.848-3.418 11.11225-2.33325 3.9505-3.7905 8.35625-4.273 12.919z" fill="#4a4a4a" fill-rule="nonzero"/><g fill="#65b708"><path d="m78 30h4c.00475-4.41625 3.58375-7.99525 8-8v-4c-6.6245.00725-11.99275 5.3755-12 12z"/><path d="m88 0h4v6h-4z"/><path d="m114 24h6v4h-6z"/><path d="m60 24h6v4h-6z"/><path d="m68.9071825 7.907777h3.9999616v5.9999425h-3.9999616z" transform="matrix(.70710678 -.70710678 .70710678 .70710678 13.055285 53.333741)"/><path d="m106.096991 8.90816841h5.999943v3.99996159h-5.999943z" transform="matrix(.70710678 -.70710678 .70710678 .70710678 24.240534 80.338125)"/></g><path d="m58 58h4v4h-4z" fill="#9b9b9b"/><path d="m66 58h4v4h-4z" fill="#9b9b9b"/><path d="m66 66h4v4h-4z" fill="#64b708"/><path d="m66 74h4v4h-4z" fill="#9b9b9b"/><path d="m66 82h4v4h-4z" fill="#64b708"/><path d="m66 90h4v4h-4z" fill="#9b9b9b"/><path d="m66 98h4v4h-4z" fill="#64b708"/><path d="m90 82h4v4h-4z" fill="#9b9b9b"/><path d="m90 90h4v4h-4z" fill="#64b708"/><path d="m90 98h4v4h-4z" fill="#9b9b9b"/><path d="m74 98h4v4h-4z" fill="#9b9b9b"/><path d="m82 98h4v4h-4z" fill="#64b708"/></g></svg>