<svg height="104" viewBox="0 0 99 104" width="99" xmlns="http://www.w3.org/2000/svg"><g fill="none" fill-rule="evenodd" transform="translate(2 2)"><path d="m79.8190077 79.7945191c-.3645191.3673893-.8495878.5718931-1.3655115.5718931h-76.54111447c-.50731297 0-1.00314503-.207374-1.35977099-.5718931-.35590839-.3616489-.55754198-.8603512-.55251908-1.3705344.01650381-.9615267.28056488-9.5470992 4.81122137-14.0791908 2.09167939-2.0909618 6.47021377-4.3584428 12.90741987-7.5795573 6.8713282-3.4335114 10.6815572-5.4799847 12.4367023-7.1389771l3.8740916-3.6631297-3.3639084-4.1316947c-5.2984428-6.5082443-8.340168-13.6981679-8.340168-19.7213435 0-4.6447481 0-9.9058779 2.1978779-14.26145038 2.632-5.20803053 7.8967176-7.84864122 15.6628397-7.84864122 7.7596641 0 13.0301221 2.64061069 15.6599695 7.84577099 2.1978778 4.35844271 2.1978778 9.61957251 2.1978778 14.26432061 0 6.0210229-3.0388549 13.210229-8.3437557 19.7213435l-3.3639084 4.1345649 3.8748092 3.6609771c1.7544274 1.6568397 5.5617862 3.7025954 12.4359847 7.1389771 6.4372061 3.2175267 10.8157405 5.4857252 12.9074198 7.5795573 3.6868092 3.6860916 4.7602748 10.5839694 4.8105039 14.0791908.0093282.5094656-.1901527 1.0081679-.5460611 1.3698168z" fill="#fbfbfb" stroke="#4a4a4a" stroke-width="4"/><g fill="#64b608" fill-rule="nonzero" transform="translate(54.534351 53.099237)"><path d="m19.733004 14.351145c-4.9459832 0-8.9696452 4.0236621-8.9696452 8.9692861 0 4.9459832 4.023662 8.9696452 8.9696452 8.9696452 4.945624 0 8.9692861-4.023662 8.9692861-8.9696452 0-4.945624-4.0236621-8.9692861-8.9692861-8.9692861zm3.7005588 7.6418928-4.5373221 4.5303219c-.1904605.1901666-.4402655.2853765-.689817.2853765-.2495514 0-.4991029-.0949567-.6895634-.2853765l-1.7339261-1.731251c-.380921-.3800801-.380921-.9966657 0-1.376999.3806674-.3803334.9982058-.3803334 1.3791268 0l1.0443627 1.0427513 3.8480123-3.8418222c.3806674-.3803333.9982058-.3803333 1.3791268 0 .3809211.38008.3809211.9966657 0 1.376999z"/><path d="m39.4196595 12.6549549-.0014144-.036296c-.0201544-.4480072-.0335908-.9219907-.0417232-1.449351-.0378339-2.57168173-2.0691927-4.69891473-4.6249214-4.84267555-5.3285601-.29926453-9.4506804-2.04787994-12.9727632-5.50276544l-.0300549-.0288234c-1.148805-1.06005801-2.8817361-1.06005801-4.0308948 0l-.0300549.0288234c-3.5220827 3.4548855-7.644203 5.20350091-12.97276301 5.50312126-2.55537517.143405-4.58708762 2.270638-4.62492139 4.84267553-.00777897.5238018-.02156889.9977855-.04172335 1.4489952l-.00212147.0843349c-.10360105 5.4682486-.2323069 12.2737575 2.02994445 18.4508465 1.24392003 3.3968831 3.12783297 6.3496732 5.59905432 8.7768825 2.81455465 2.7641931 6.50105535 4.9586805 10.95696205 6.5222573.1449708.0508857.295599.0921635.4490558.1231219.2163954.0434129.4342052.0651194.6520149.0651194.2178098 0 .4359731-.0217065.6520149-.0651194.153457-.0309584.3051459-.0725921.4508238-.1238336 4.4506029-1.5664235 8.1332142-3.7619785 10.9452938-6.5258158 2.4701605-2.4279208 4.3540735-5.3814227 5.5990543-8.7790174 2.2707373-6.195593 2.1423851-13.0139122 2.0391377-18.4924803zm-19.6870316 21.5724859c-5.9731413 0-10.83237065-4.8922914-10.83237065-10.906074 0-6.0137824 4.85922935-10.9060739 10.83237065-10.9060739 5.9728096 0 10.8323707 4.8922915 10.8323707 10.9060739 0 6.0137826-4.8595611 10.906074-10.8323707 10.906074z" stroke="#fff" stroke-width="4.16"/></g></g></svg>