<svg height="102" viewBox="0 0 56 102" width="56" xmlns="http://www.w3.org/2000/svg"><g fill="none" fill-rule="evenodd"><g transform="translate(1 1)"><path d="m21.269229 59.9255918c-.0618464-.1853569-.1239779-.3704316-.1858244-.5560705-.5446478.1292137-1.1981682.1145432-1.6100029.4195215-.7518477.5566347-1.3925428 1.2746455-2.0215526 1.9762931-1.1534221 1.2867769-1.2132735 2.8277495-.0604214 4.0716433 1.3782925 1.4879329 2.8241315 2.9194406 4.3070214 4.3058081 1.1733727 1.096624 2.6916034 1.1925469 3.8569959.0956407 2.0566084-1.9359491 3.9766986-4.0135254 5.9540752-6.0315732-.0037051-.1176465-.0071252-.2352931-.0105453-.3529397-.3896042.0485257-.9077464-.0434474-1.1448719.170122-.8681305.7828999-1.6427787 1.6673651-2.3658408 2.4223344-.7185019-.5738444-1.2611547-1.00719-1.9349105-1.5452044 1.7567813-1.6320993 3.4083952-3.1663009 5.0158331-4.659312-.4619959-1.0396346-.8732606-1.0314529-1.4461241-.4056973-1.3557769 1.479187-2.7426195 2.9307256-3.9316675 4.1969074-.8533101-.6771026-1.3911178-1.1039593-2.0816891-1.651566 1.7570664-1.6467699 3.4066853-3.1925386 5.1121654-4.7910649-.3961593-.3396798-.6666307-.5718695-1.0844505-.9298875-2.2774887 2.3523671-4.498831 4.6463342-6.6688721 6.8875437-.6632106-.5636879-1.190188-1.0119862-1.7453811-1.4839831.7603979-.794467 1.4030881-1.4664913 2.0460632-2.1385156m-18.85233892 14.6615274.46541596.2951039c1.34979178-1.4464604 2.62833189-2.9682484 4.07445594-4.3131433.98726325-.9183204 1.28481026-1.8908089 1.358912-3.2012845.34001301-6.0171848-1.27939512-12.2152123 1.68695472-17.9835619-4.27538567-1.2822629-7.6316247 1.1462782-7.64502002 5.491866-.01938045 6.1596584-.00627015 12.3190347-.00256506 18.478411.00028501.4110577.04018595.8218332.06184646 1.2326088m19.11369012-.8968788c-2.5414049-2.5038688-4.8790299-4.8065818-6.9766793-6.8731552-3.8165249 3.6301161-7.70401643 7.3282246-11.85912928 11.2805286 1.77758686 1.6490269 3.45599138 3.2393715 5.17287181 4.7879615 1.25488455 1.1321719 3.01651107 1.1609488 4.25743027-.0245449 3.1744047-3.0334195 6.2906681-6.1260855 9.4055065-9.17079m-13.33517905-27.1597121c.99923353.2705589 1.92522035.5763835 2.87600275.7510196.383334.0705315.9279818-.0172097 1.2166936-.2525029 2.5345647-2.0637522 5.4094274-2.9674019 8.6927047-2.9087197 4.7009007.0835093 9.4043665.0014106 14.1066922.0273662 3.5785443.020031 6.4856127 1.517274 9.0301527 4.1929576l-1.7040552 1.4484352c-1.6761244-1.6752646-3.5508986-2.9846116-5.9711756-3.2684305-.8228144-.0962049-1.6533239-.2146979-2.4758533-.0899982-3.9969341.6057247-8.0483045.5803334-12.0520788.0220059-6.4847577-.9042141-11.636539 4.1001381-11.3244567 9.8033165.1641639 3.0004107.0250806 6.0166205.0316358 9.0260593.000855.3997726.0552913.7998274.1108676 1.5471793 1.5410313-1.8741634 3.2923975-3.0128242 4.2500201-5.1265127.763533-1.6845748 2.4046016-3.1081829 3.9416428-4.2801346 1.3067558-.9961871 2.8115912-.279869 3.9781237.6635605 2.2256174-1.0224248 3.3468338-5.3220261 6.4901728-2.8257747 3.6691764 2.9137981 4.6148287 3.4811536 3.3337235 6.5425035 1.6285284 2.1308982 1.5444514 3.128496-.4283651 5.082219-1.4104982 1.3968061-2.8184313 2.7955872-4.2334897 4.1878793-.3363079.3309339-.6432601.7845926-1.0545248.9312982-2.2780586.8119588-3.4545663 2.8548336-5.0736895 4.3848033-2.507204 2.3695768-4.8550893 4.9041974-7.3716986 7.2633356-1.0684901 1.0012654-2.3929163 1.7350753-3.9319526 2.8249283 0 2.4034319-.045031 5.3113053.0538663 8.2146647.0131103.3865127.7090967.9947765 1.1699526 1.0819534 3.2995227.6271663 6.6024654 1.3042688 9.937329 1.6662366 7.2132348.7826177 14.3483778.0437295 21.5621827-1.5714422.0384759-.0087459.0772368.0160812.086072.0541682.1772742.7481983.3226276 1.3615404.5152922 2.175192-2.3034243.4254461-4.5119413.9236807-6.7472489 1.2292232-8.4037079 1.1485348-16.7558296.8424288-25.0358446-1.0424558-.1385132-.031316-.2813016-.0468329-.4189598-.0823808-3.29154253-.8483531-3.47565687-1.0833641-3.47850694-4.4344575-.00228005-2.3038415.02137551-4.6082472-.02935569-6.9112423-.00997523-.449991-.18354432-1.0243997-.49591167-1.3192215-2.32821983-2.1983263-4.74450673-4.305808-7.04565092-6.5300899-.43805531-.4234712-.6837311-1.2393798-.68743619-1.8761383-.04047095-7.0994204.00142504-14.1991228-.01539036-21.2985432-.01197028-4.9781144 1.97224644-7.6484376 6.8113754-9.0494757.13338314-.0383691.25793107-.1077721.67062079-.2841009-.67062079.2841009.08122691-.1447307.71052173.031316" fill="#4a4a4a" stroke="#4a4a4a"/><path d="m21.301709 59.2273923c-.6323355.688489-1.2643907 1.3769781-2.0122059 2.1909097.546006.4835609 1.0642633.9428427 1.7164994 1.520341 2.1341324-2.2961196 4.318717-4.6462894 6.5585189-7.0562901.410906.3667895.6769017.604668 1.0665056.95267-1.6772587 1.6376906-3.2995805 3.221331-5.0275718 4.9084471.679144.5610232 1.2080523.998338 2.0472422 1.6920298 1.1693723-1.2972036 2.5332662-2.7843052 3.8666084-4.2997326.563384-.6410868.9678433-.6494689 1.4221943.4156369-1.5808388 1.5295903-3.2051226 3.1013801-4.9328336 4.7734663.6626068.5511958 1.1962801.9951586 1.9028926 1.5830623.7110972-.7734663 1.4729269-1.6796011 2.326692-2.4816822.2332017-.2188019.74277-.1245754 1.1259272-.17429.0033635.1205289.0067269.2410579.0103707.3615868-1.9446559 2.0674904-3.8329734 4.1959679-5.8555502 6.1793481-1.1461081 1.1237806-2.6392159 1.0255076-3.7931722-.0979839-1.4583518-1.4203338-2.8802658-2.8869138-4.235751-4.4113014-1.1337753-1.2743695-1.0749143-2.8530962.0594216-4.1713996.6186013-.718838 1.2486945-1.4544403 1.988101-2.0247127.4050199-.3124503 1.0477261-.2974203 1.5833614-.4297999.060823.1901872.1219264.3797963.1827494.5696944" fill="#64b608"/><path d="m27.4509804 2.24234549c-10.1159925 0-18.34590507 8.22996851-18.34590507 18.34602991 0 10.1157811 8.22991257 18.3457497 18.34590507 18.3457497s18.3459051-8.2299686 18.3459051-18.3457497c0-10.1160614-8.2299126-18.34602991-18.3459051-18.34602991m0 38.93412511c-11.3523574 0-20.5882353-9.2356605-20.5882353-20.5880952 0-11.35243461 9.2358779-20.5883754 20.5882353-20.5883754s20.5882353 9.23594079 20.5882353 20.5883754c0 11.3524347-9.2358779 20.5880952-20.5882353 20.5880952" fill="#4a4a4a" stroke="#4a4a4a"/><path d="m43.1372549 95.7946593s1.2463006-.5388272 3.3034546-2.59888c.2240915-.2243679.3872325-.4989459.4697128-.7976249l.6098079-2.202076h2.4122435s1.1610912 3.5890252-6.1459902 7.8333652c-.0403304.0232402-.0946097.0031561-.105223-.040455z" fill="#231f20"/></g><rect fill="#fff" height="45.039216" rx="5.852941" stroke="#4a4a4a" stroke-width="3" width="11.705882" x="42.696078" y="48.578431"/></g></svg>