<svg height="9" viewBox="0 0 6 9" width="6" xmlns="http://www.w3.org/2000/svg"><path d="m941.337891 367.738281c.058594.046875.102539.105469.131836.175781.029297.070313.043945.140625.043945.210938 0 .082032-.014648.155273-.043945.219727-.029297.064453-.067383.125976-.114258.18457l-3.56836 3.550781c-.046875.058594-.108398.102539-.18457.131836s-.149414.043945-.219727.043945c-.164063 0-.298827-.052733-.404296-.158203-.10547-.105469-.158204-.240233-.158204-.404297 0-.070312.014649-.143554.043946-.219726s.073242-.137695.131836-.184571l3.146484-3.164062-3.164062-3.164062c-.046876-.046876-.087891-.105469-.123047-.175782-.035157-.070313-.052735-.146484-.052735-.228515 0-.152345.055664-.28418.166993-.395508.111328-.111329.243163-.166992.395507-.166992.082032 0 .158203.014648.228516.043945s.134765.073242.193359.131836z" fill="#4a4a4a" fill-rule="evenodd" transform="translate(-936 -364)"/></svg>