<?xml version="1.0" encoding="UTF-8" standalone="no"?>
<svg width="325px" height="167px" viewBox="0 0 325 167" version="1.1" xmlns="http://www.w3.org/2000/svg" xmlns:xlink="http://www.w3.org/1999/xlink" xmlns:sketch="http://www.bohemiancoding.com/sketch/ns">
    <!-- Generator: Sketch 3.0.1 (7597) - http://www.bohemiancoding.com/sketch -->
    <title>Group</title>
    <description>Created with Sketch.</description>
    <defs></defs>
    <g id="Page-1" stroke="none" stroke-width="1" fill="none" fill-rule="evenodd" sketch:type="MSPage">
        <g id="Hamon-Logo-Horizontal-OpenFile" sketch:type="MSLayerGroup" transform="translate(-213.000000, -5.000000)" fill="#825D4E">
            <g id="Group" sketch:type="MSShapeGroup">
                <g transform="translate(214.000000, 6.000000)" id="Shape">
                    <g transform="translate(271.000000, 0.000000)">
                        <path d="M3.604,163.24 L5.843,163.24 L5.833,58.76 L3.595,46.468 L3.604,163.24 Z"></path>
                        <path d="M52.567,163.24 L49.062,143.991 L49.062,2.508 L46.823,2.508 L46.823,131.707 L22.917,0.464 L0.458,4.555 L5.833,34.056 L29.364,163.24 L52.567,163.24 Z"></path>
                    </g>
                    <g transform="translate(121.000000, 1.000000)">
                        <path d="M50.339,3.033 L73.165,-0.044 L73.165,162.24 L50.339,162.24 L50.339,3.033 Z"></path>
                        <g>
                            <path d="M3.112,162.24 L5.351,162.24 L5.351,71.825 L3.112,56.313 L3.112,162.24 Z"></path>
                            <path d="M22.507,-0.121 L-0.087,3.14 L3.112,25.326 L5.351,40.838 L19.194,136.791 L42.259,136.791 L22.507,-0.121 Z"></path>
                        </g>
                        <path d="M36.286,108.951 L37.323,115.313 L45.913,71.435 L45.913,59.788 L36.286,108.951 Z"></path>
                    </g>
                    <g transform="translate(0.000000, 1.000000)">
                        <path d="M30.808,77.261 L22.521,77.261 L22.521,-0.058 L-0.308,3.035 L-0.308,162.24 L22.521,162.24 L22.521,79.497 L30.808,79.497 L30.808,77.261 Z"></path>
                        <path d="M35.232,3.035 L35.232,162.24 L58.058,162.24 L58.058,-0.034 L35.232,3.035 Z"></path>
                    </g>
                    <path d="M259.339,4.033 C255.933,0.628 250.206,-0.06 247.364,-0.06 C240.542,-0.06 232.327,0.712 225.096,2.475 C227.75,2.824 230.172,3.332 231.85,4.066 C238.086,6.669 241.686,12.901 241.686,24.501 L241.686,145.988 C241.686,157.75 241.711,162.313 237.971,162.313 C231.596,161.318 228.135,155.187 228.135,141.878 L228.135,20.39 C228.135,13.664 228.123,9.293 228.819,6.784 C223.639,4.614 217.573,4.796 215.807,5.631 C213.442,6.752 211.428,8.052 209.928,9.552 C204.84,14.64 204.49,21.852 204.49,30.004 L204.49,141.569 C204.49,150.914 205.648,156.879 210.48,161.712 C213.884,165.116 219.613,165.806 222.457,165.806 C235.269,165.806 253.004,163.078 259.893,156.195 C264.977,151.107 265.329,143.892 265.329,135.744 L265.329,24.179 C265.329,14.832 264.171,8.866 259.339,4.033 L259.339,4.033 Z"></path>
                    <path d="M98.507,0.984 L75.884,4.033 L80.599,39.019 L89.536,105.328 L72.938,105.328 L79.323,62.672 L78.251,54.716 L62.007,163.24 L64.271,163.24 L72.604,107.565 L89.837,107.565 L97.343,163.24 L120.376,163.24 L98.507,0.984 Z"></path>
                </g>
            </g>
        </g>
    </g>
</svg>