<?xml version="1.0" encoding="UTF-8" standalone="no"?>
<svg width="180px" height="180px" viewBox="0 0 180 180" version="1.1" xmlns="http://www.w3.org/2000/svg" xmlns:xlink="http://www.w3.org/1999/xlink" xmlns:sketch="http://www.bohemiancoding.com/sketch/ns">
    <!-- Generator: Sketch 3.0.1 (7597) - http://www.bohemiancoding.com/sketch -->
    <title>Group</title>
    <description>Created with Sketch.</description>
    <defs></defs>
    <g id="Page-1" stroke="none" stroke-width="1" fill="none" fill-rule="evenodd" sketch:type="MSPage">
        <g id="Hamon-Logo-Horizontal-OpenFile" sketch:type="MSLayerGroup" fill="#FFFFFF">
            <g id="Group" sketch:type="MSShapeGroup">
                <g id="Shape">
                    <path d="M165.884,38.885 L140.679,13.679 L107.746,0.037 L72.099,0.037 L39.166,13.679 L13.961,38.885 L0.321,71.817 L0.321,107.464 L13.961,140.396 L39.166,165.603 L72.099,179.244 L107.746,179.244 L140.679,165.603 L165.884,140.396 L179.528,107.464 L179.528,71.817 L165.884,38.885 L165.884,38.885 Z M169.527,105.474 L157.407,134.732 L135.014,157.125 L105.757,169.244 L74.087,169.244 L44.83,157.125 L22.437,134.732 L10.32,105.476 L10.32,73.806 L22.437,44.549 L44.83,22.156 L74.087,10.037 L105.757,10.037 L135.014,22.156 L157.407,44.55 L169.527,73.806 L169.527,105.474 L169.527,105.474 Z"></path>
                    <path d="M98.612,137.563 L119.663,137.563 L119.663,37.087 L98.612,39.924 L98.612,137.563 Z"></path>
                    <path d="M81.237,37.087 L60.187,39.924 L60.187,137.563 L81.237,137.563 L81.237,93.149 L92.82,93.149 L92.82,86.132 L81.237,86.132 L81.237,37.087 Z"></path>
                </g>
            </g>
        </g>
    </g>
</svg>