<svg height="395.219pt" viewBox="0 0 3390.47 395.219" width="3390.47pt" xmlns="http://www.w3.org/2000/svg"><g fill="#b11107" stroke="none" transform="matrix(.999952 0 0 .999952 .000024 .018683)"><path d="m86.4 193.619h-86.4v-64.8h86.4v-50.4h-14.4v-36h14.4v-14.4h36v14.4h216c59.668-31.267 129.702-37.338 190.235-38.083 66.813-.858 70.275-.107 97.53.088 115.368.859 123.32 1.368 139.603-1.201 6.564-1.081 13.763 3.26 14.332 6.495 1.323 7.172-13.626 15.478-18.242 16.941-14.351 4.555-40.043 6.616-109.929 10.648l-1.664.034c-110.989 10.48-173.253 36.647-189.343 44.135-63.641 29.703-70.511 43.531-62.237 52.355 8.768 9.358 58.312-11.226 82.607-18.164 48.282-13.774 76.735-.583 94.708 13.152h43.2v-7.2h28.8v7.2h244.8v64.8h-244.8v50.401h208.8v36h-208.8v115.199h-28.8v-115.199h-14.4v-36h14.4v-50.401h-14.4c-.249 25.469-7.709 48.819-14.848 58.438-66.632 89.505-368.868 101.02-462.493 102.548-23.625.405-40.536-3.558-41.059-9.787m167.373-217.567c4.039-16.988 15.325-34.298 28.846-48.704l-158.2.631-.574 49.838 129.117.524.61 1.033m498.383-118.758c-1.645-.819-85.667 3.864-90.391 3.435-4.723-.43-55.339.295-83.09-.43-32.85-.859-67.324.034-99.409 3.006-32.42 3.006-65.914 13.097-93.61 24.691-26.348 11.031-52.604 24.905-73.215 41.223-10.555 8.354-18.579 17.633-25.764 28.986-8.159 12.881-12.092 27.596-6.657 39.935 5.859 13.284 18.962 19.168 35.212 21.685 14.754 2.294 32.85 1.073 44.444 3.435 6.884 1.402 18.183 3.254 18.894 9.877.644 6.011-10.206 16.063-15.244 18.463-9.447 4.51-22.115.645-34.353-1.932-8.435-1.771-20.953-5.878-28.771-9.448-5.279-2.414-10.927-4.32-12.001-4.32-.428 0-165.813-.428-165.6 0 0 2.791-.213 137.56 0 144 .235 7.112 24.778 5.005 39.976 3.529 29.361-2.873 59.902-6.442 89.532-10.735 16.942-2.456 34.897-5.637 51.958-9.019 27.053-5.366 59.401-12.882 72.852-17.177 33.642-10.734 68.424-20.181 100.2-33.922 14.286-6.173 31.347-13.956 42.942-21.901 12.358-8.468 25.549-20.182 31.132-32.205 6.199-13.352 8.097-29.428 1.717-44.015-6.011-13.741-22.544-25.978-36.929-28.341-8.187-1.342-14.6-2.147-22.544-1.503-9.138.738-24.691 4.079-34.997 5.368-16.942 2.12-36.849 5.133-53.462 2.577-11.164-1.719-28.77-16.103-22.544-32.85 4.563-12.279 22.242-24.88 32.85-31.776 25.765-16.748 72.114-31.368 111.862-40.795 33.493-7.943 80.513-14.385 120.234-14.814 3.83-.04 39.713-2.449 43.37-2.577 60.332-2.147 62.264-12.023 61.406-12.452"/><path d="m1076.45 33.923v45.947h76v29.2h-76v89.317h-38.65v-194.951h142.99v30.487z"/><path d="m1341.92 198.387-57.95-80.3c-5.84 0-14.01-.295-24.5-.892v81.192h-39.93v-194.596c2.17 0 10.52-.343 25.06-1.034 14.53-.69 26.26-1.039 35.16-1.039 55.18 0 82.771 19.176 82.771 57.514 0 11.566-3.811 22.087-11.43 31.575-7.63 9.486-17.23 16.162-28.82 20.014l64.3 87.566h-44.66zm-82.45-164.584v54.347c7.15.496 12.61.737 16.38.737 16.18 0 28.01-2.025 35.5-6.084 7.49-4.053 11.24-12.024 11.24-23.907 0-9.594-4.02-16.304-12.06-20.115s-20.69-5.716-37.96-5.716c-4.17 0-8.54.248-13.101.738"/><path d="m1448.22 33.923v45.947h70v29.2h-70v58.828h98.34v30.489h-136.98v-194.951h136.98v30.487z"/><path d="m1625.52 33.923v45.947h69.99v29.2h-69.99v58.828h98.32v30.489h-136.97v-194.951h136.97v30.487z"/><path d="m1849.89 187.732 14.24-30.998c15.23 9.736 30.22 14.6 44.96 14.6 22.65 0 33.98-7.125 33.98-21.39 0-6.629-2.681-12.969-8.021-19.008-5.35-6.038-16.35-12.822-33.02-20.35-16.681-7.528-27.91-13.714-33.69-18.571-5.779-4.858-10.24-10.629-13.35-17.318-3.12-6.69-4.67-14.05-4.67-22.074 0-15.163 6.14-27.724 18.449-37.681 12.302-9.957 28.082-14.942 47.352-14.942 25.1 0 43.52 4.213 55.29 12.634l-11.7 29.878c-13.51-8.589-27.78-12.883-42.771-12.883-8.879 0-15.76 2.107-20.649 6.314-4.88 4.213-7.33 9.682-7.33 16.411 0 11.192 13.76 22.833 41.28 34.91 14.49 6.427 24.949 12.305 31.359 17.639 6.42 5.334 11.301 11.581 14.66 18.747 3.351 7.165 5.03 15.143 5.03 23.932 0 15.809-6.94 28.805-20.82 38.977-13.87 10.177-32.47 15.263-55.78 15.263-20.25 0-38.51-4.694-54.8-14.089"/><path d="m2009.68 99.354c0-27.776 8.471-51.28 25.431-70.51 16.95-19.23 39.609-28.844 67.979-28.844 31.24 0 55.11 8.703 71.62 26.1 16.5 17.404 24.771 41.82 24.771 73.254 0 31.441-8.631 56.374-25.881 74.811-17.25 18.439-41.739 27.657-73.47 27.657-29.16 0-51.53-9.144-67.1-27.435-15.561-18.289-23.351-43.296-23.351-75.033zm39.94.141c0 22.759 4.3 40.425 12.92 52.993 8.61 12.566 21.13 18.846 37.59 18.846 19.31 0 34.03-6.133 44.181-18.404 10.149-12.264 15.239-30.079 15.239-53.435 0-45.718-18.83-68.578-56.46-68.578-17.229 0-30.46 6.187-39.66 18.559-9.21 12.372-13.81 29.045-13.81 50.019"/><path d="m2276.689 33.923v45.947h76.011v29.2h-76.011v89.317h-38.64v-194.951h142.99v30.487h-104.351"/><path d="m2512.8 33.923v164.464h-38.649v-164.464h-69.131v-30.487h179.92v30.487z"/><path d="m2794 200.964h-15.89l-47.24-122.812-45.94 122.812h-15.89l-71.28-197.528h40.36l40.58 117.658 44.01-117.658h16.75l44.021 117.658 40.58-117.658h40.359z"/><path d="m2997.39 198.387-15.79-39.506h-74.319l-15.101 39.506h-42.939l86.74-197.529h16.75l87.17 197.529zm-53.03-137.841-26.13 71.712h52.149l-26.02-71.712"/><path d="m3185.83 198.387-57.94-80.3c-5.85 0-14.01-.295-24.5-.892v81.192h-39.939v-194.596c2.17 0 10.52-.343 25.069-1.034 14.53-.69 26.25-1.039 35.16-1.039 55.17 0 82.771 19.176 82.771 57.514 0 11.566-3.811 22.087-11.44 31.575-7.62 9.486-17.229 16.162-28.81 20.014l64.29 87.566h-44.66zm-82.44-164.584v54.347c7.13.496 12.601.737 16.37.737 16.18 0 28.021-2.025 35.51-6.084 7.48-4.053 11.24-12.024 11.24-23.907 0-9.594-4.029-16.304-12.06-20.115-8.04-3.811-20.7-5.716-37.97-5.716-4.17 0-8.53.248-13.091.738"/><path d="m3292.14 33.923v45.947h69.99v29.2h-69.99v58.828h98.33v30.489h-136.98v-194.951h136.979v30.487h-98.33"/><path d="m1105.12 288.797v31.133h47.67v13.095h-47.67v54.322h-18.46v-112.506h83.74v13.956z"/><path d="m1314.58 330.127c0-16.344 4.93-29.979 14.77-40.955 9.84-10.978 23.12-16.479 39.85-16.479 18.82 0 33.24 5.072 43.27 15.163 10.03 10.119 15.05 24.208 15.05 42.271 0 18.465-5.03 32.957-15.09 43.451-10.06 10.467-24.47 15.699-43.229 15.699-17.1 0-30.48-5.527-40.13-16.586-9.66-11.083-14.49-25.254-14.49-42.564zm19.54-.026c0 12.962 3.06 23.778 9.18 32.447 6.13 8.669 14.76 12.989 25.9 12.989 12.62 0 22.24-3.973 28.85-11.942 6.62-7.945 9.93-19.11 9.93-33.494 0-29.093-12.92-43.666-38.78-43.666-11.44 0-20.15 3.919-26.12 11.729-5.97 7.781-8.96 18.438-8.96 31.937"/><path d="m1583.65 274.841h18.47v77.079c0 6.87 2.62 12.506 7.88 16.962 5.24 4.454 12.19 6.655 20.84 6.655 9.14 0 16.34-2.146 21.59-6.441 5.25-4.268 7.87-10.117 7.87-17.551v-76.704h18.47v78.341c0 11.354-4.27 20.209-12.82 26.57-8.54 6.359-20.18 9.525-34.92 9.525-15.18 0-26.87-3.111-35.07-9.339-8.21-6.226-12.31-15.189-12.31-26.864z"/><path d="m1929.07 388.849-69.99-82.231v80.729h-17.61v-112.506h7.521l68.06 77.722v-77.722h17.601v114.008h-5.58"/><path d="m2124.68 387.347h-27.35v-112.614c17.439-.482 28.59-.751 33.47-.751 18.97 0 33.99 4.777 45.05 14.33 11.07 9.556 16.601 22.305 16.601 38.246 0 40.524-22.601 60.788-67.771 60.788zm-8.88-98.792v84.326c4.13.481 9.271.724 15.39.724 12.98 0 23.171-4.024 30.601-12.104 7.399-8.077 11.12-19.297 11.12-33.655 0-26.73-14.44-40.123-43.3-40.123-1.73 0-6.341.295-13.811.832"/><path d="m2425.55 387.347-9.34-23.619h-50.43l-10.011 23.619h-20.83l55.181-114.009h4.94l51.1 114.009zm-33.82-84.594-21.041 49.597h40.25z"/><path d="m2626.11 288.797v98.55h-18.46v-98.55h-43.16v-13.956h106.71v13.956z"/><path d="m2824.87 274.841h18.47v112.506h-18.47z"/><path d="m3002.78 330.127c0-16.344 4.93-29.979 14.76-40.955 9.85-10.978 23.13-16.479 39.86-16.479 18.81 0 33.239 5.072 43.279 15.163 10.021 10.119 15.04 24.208 15.04 42.271 0 18.465-5.03 32.957-15.1 43.451-10.05 10.467-24.46 15.699-43.22 15.699-17.101 0-30.48-5.527-40.141-16.586-9.649-11.083-14.479-25.254-14.479-42.564zm19.54-.026c0 12.962 3.06 23.778 9.18 32.447 6.13 8.669 14.76 12.989 25.9 12.989 12.609 0 22.229-3.973 28.85-11.942 6.61-7.945 9.93-19.11 9.93-33.494 0-29.093-12.92-43.666-38.779-43.666-11.45 0-20.16 3.919-26.131 11.729-5.97 7.781-8.949 18.438-8.949 31.937"/><path d="m3359.45 388.849-70-82.231v80.729h-17.601v-112.506h7.511l68.06 77.722v-77.722h17.61v114.008z"/></g></svg>